<?xml version="1.0" encoding="utf-8"?>
<!-- Generator: Adobe Illustrator 27.7.0, SVG Export Plug-In . SVG Version: 6.00 Build 0)  -->
<svg version="1.1" id="Layer_1" xmlns="http://www.w3.org/2000/svg" xmlns:xlink="http://www.w3.org/1999/xlink" x="0px" y="0px"
	 viewBox="0 0 303.51 140.76" style="enable-background:new 0 0 303.51 140.76;" xml:space="preserve">
<style type="text/css">
	.st0{fill:#277232;}
</style>
<g>
	<g>
		<path class="st0" d="M0,70.54C0,57.5,9.13,50.58,19.73,50.58c8.05,0,12.08,4.03,12.08,5.22c0,1.13-1.98,3.91-2.95,3.91
			c-1.3,0-2.55-2.21-8.79-2.21c-6.52,0-12.08,3.35-12.08,13.21c0,9.47,5.05,12.42,11.17,12.42c4.65,0,6.35-2.27,6.35-3.46v-8.11
			c0-1.08,5.05-2.27,6.24-2.27c0.91,0,1.3,0.4,1.3,1.36v11.23c0,1.53-4.25,7.82-14.29,7.82S0,84.2,0,70.54z"/>
		<path class="st0" d="M37.31,70.03c0-13.15,8.33-19.45,18.03-19.45c9.7,0,18.03,6.29,18.03,19.45c0,13.16-7.71,19.68-18.03,19.68
			C44.51,89.7,37.31,83.18,37.31,70.03z M65.77,70.14c0-9.75-4.99-12.93-10.43-12.93s-10.43,3.18-10.43,12.93
			c0,9.64,4.42,13.04,10.43,13.04C61.07,83.18,65.77,79.78,65.77,70.14z"/>
		<path class="st0" d="M79.61,88V52.28c0-0.62,0.51-1.13,3.69-1.13c3.12,0,3.69,0.51,3.69,1.13v29.54c0,0.57,0.28,0.85,0.85,0.85
			h4.99c8.62,0,10.15-1.59,11.06-1.59c0.4,0,0.68,0.23,0.68,0.79c0,4.82-0.68,7.26-3.23,7.26H80.68
			C80.06,89.14,79.61,88.74,79.61,88z"/>
		<path class="st0" d="M117.03,66.74c0,0.57,0.28,0.85,0.85,0.85h10.43c0.62,0,1.13,0.34,1.13,3.12s-0.51,3.12-1.13,3.12h-10.43
			c-0.57,0-0.85,0.28-0.85,0.85V88c0,0.62-0.57,1.13-3.69,1.13c-3.18,0-3.69-0.51-3.69-1.13V52.73c0-1.08,0.51-1.59,1.59-1.59h18.82
			c2.55,0,3.23,2.21,3.23,7.03c0,0.57-0.28,0.79-0.68,0.79c-1.25,0-3.35-1.59-11.06-1.59h-3.69c-0.57,0-0.85,0.28-0.85,0.85V66.74z"
			/>
		<path class="st0" d="M136.87,70.59c0-12.59,8.85-19.85,18.77-19.85c7.03,0,10.21,3.17,10.21,3.86c0,0.51-1.08,1.93-1.53,1.93
			c-0.74,0-3-2.44-8.56-2.44c-7.65,0-14.97,5.9-14.97,16.44c0,10.66,7.03,15.59,14.86,15.59c7.43,0,11.68-4.31,12.3-4.31
			c0.34,0,0.45,0.17,0.45,0.45c0,0.57-0.06,1.53-0.62,2.55c-0.57,1.08-5.56,4.71-12.47,4.71C145.6,89.53,136.87,83.24,136.87,70.59z
			"/>
		<path class="st0" d="M173.67,88.45V51.83c0-0.45,0.45-0.68,1.87-0.68c1.3,0,1.81,0.23,1.81,0.68v36.63c0,0.4-0.51,0.68-1.81,0.68
			C174.12,89.14,173.67,88.91,173.67,88.45z"/>
		<path class="st0" d="M184.9,88.45V54.09c0-1.7,4.42-3.35,10.43-3.35c9.58,0,15.37,3.29,15.37,12.19c0,7.6-5.22,11.46-10.09,12.3
			c3.69,2.44,6.46,9.53,10.49,11.06c0.68,0.34,1.42,0.45,2.21,0.45c0.4,0,0.62,0.17,0.62,0.51c0,0.74-1.98,1.98-3.74,1.98
			c-6.41,0-8.96-11.51-14.91-13.1h-6.46c-0.11,0-0.23,0.06-0.23,0.17v12.13c0,0.4-0.57,0.68-1.81,0.68
			C185.41,89.14,184.9,88.91,184.9,88.45z M188.92,72.92h6.12c7.2,0,11.74-2.89,11.74-9.87c0-6.97-4.31-9.13-11.34-9.13
			c-3.97,0-6.86,0.74-6.86,2.04v16.5C188.58,72.75,188.7,72.92,188.92,72.92z"/>
		<path class="st0" d="M216.31,70.59c0-12.59,8.85-19.85,18.77-19.85c7.03,0,10.21,3.17,10.21,3.86c0,0.51-1.08,1.93-1.53,1.93
			c-0.74,0-3-2.44-8.56-2.44c-7.65,0-14.97,5.9-14.97,16.44c0,10.66,7.03,15.59,14.86,15.59c7.43,0,11.68-4.31,12.3-4.31
			c0.34,0,0.45,0.17,0.45,0.45c0,0.57-0.06,1.53-0.62,2.55c-0.57,1.08-5.56,4.71-12.47,4.71C225.04,89.53,216.31,83.24,216.31,70.59
			z"/>
		<path class="st0" d="M253.11,88.23v-36.4c0-0.45,0.45-0.68,1.87-0.68c1.3,0,1.81,0.23,1.81,0.68v33.46c0,0.4,0.17,0.51,0.51,0.51
			h4.25c5.95,0,12.36-0.4,12.59-0.4c0.4,0,0.57,0.34,0.57,1.08c0,1.76-0.28,2.67-1.19,2.67h-19.56
			C253.39,89.14,253.11,88.8,253.11,88.23z"/>
		<path class="st0" d="M279.58,88.11V52.11c0-0.62,0.28-0.96,0.96-0.96h20.53c0.91,0,1.19,0.85,1.19,2.61
			c0,0.74-0.17,1.02-0.57,1.02c-0.23,0-4.37-0.4-6.52-0.4h-11.45c-0.34,0-0.51,0.17-0.51,0.51v13.1c0,0.11,0.11,0.28,0.23,0.28h14.8
			c0.4,0,0.62,0.4,0.62,1.64c0,1.3-0.23,1.7-0.68,1.7h-14.74c-0.11,0-0.23,0.17-0.23,0.34v13.38c0,0.4,0.17,0.51,0.51,0.51h11.23
			c2.15,0,7.77-0.4,7.99-0.4c0.4,0,0.57,0.34,0.57,1.08c0,1.76-0.23,2.61-1.13,2.61h-21.83C279.87,89.14,279.58,88.8,279.58,88.11z"
			/>
	</g>
	<g>
		<g>
			<path class="st0" d="M216.15,43.95C205.77,18.22,180.57,0,151.17,0h0h0h0c0,0,0,0,0,0c-29.4,0-54.61,18.22-64.98,43.95
				c-0.08,0.2,0.04,0.54,0.18,0.61c1.23,0.59,4.35,0.26,5.77,0c0.34-0.06,0.79-0.38,0.87-0.56C102.99,21.8,125.29,6.3,151.16,6.3
				l0,0c0,0,0,0,0,0h0c0,0,0,0,0,0c0,0,0,0,0,0l0,0c25.87,0,48.17,15.5,58.16,37.69c0.08,0.19,0.53,0.5,0.87,0.56
				c1.42,0.26,4.54,0.59,5.77,0C216.11,44.48,216.23,44.15,216.15,43.95z"/>
		</g>
		<g>
			<path class="st0" d="M216.36,96.33c-10.37,25.73-35.58,43.94-64.98,43.95c0,0,0,0,0,0h0h0h0c-29.4,0-54.61-18.22-64.98-43.95
				c-0.08-0.2,0.04-0.54,0.18-0.61c1.23-0.59,4.35-0.26,5.77,0c0.34,0.06,0.79,0.38,0.87,0.56c9.98,22.19,32.29,37.68,58.16,37.69
				l0,0c0,0,0,0,0,0h0h0c0,0,0,0,0,0l0,0c25.87,0,48.17-15.5,58.16-37.69c0.08-0.19,0.53-0.5,0.87-0.56c1.42-0.26,4.54-0.59,5.77,0
				C216.32,95.8,216.45,96.13,216.36,96.33z"/>
		</g>
	</g>
</g>
</svg>
